:SAMPLES-PER-SECOND 30
:FULLY-SPECIFIED
:DEGREES
1
root  40.5153 40.5377 -3.55851 -113.938 -86.9839 113.733
RightUpLeg  -0.716634 -9.60404 -5.19224
RightLeg  6.79856 -9.73009 4.38049
RightFoot  -5.83313 0.0354755 -1.38744
RightToes  0.000482159 0.542163 -0.142577
Spine  6.65621 1.23835 -1.99616
Spine1  0.795027 1.2135 0.5113
HEad  -6.95785 0.287177 -0.238157
LeftShoulder1  1.02483 -2.60102 -9.34756
LeftArm  -21.7134 11.0545 -8.23961
LeftForeArm  11.6993 -1.53058 0.174466
LeftHand  -0.25398 0.0180481 5.50724
RightShoulder  0.437578 -0.731377 8.31634
RightArm  -27.9982 -5.2933 5.26373
RightForeArm  0.0729938 2.34374 0.537657
RightHand  -1.15032 2.87326 -16.3428
LeftUpLeg  -2.18456 5.40074 3.28928
LeftLeg  2.56922 15.2786 -4.03822
LeftFoot  -0.0210064 0.104407 -1.11811
LeftToes  1.06244e-005 4.65856e-005 -8.18505e-006
2
root  40.5512 40.5399 -3.56261 -113.895 -87.0463 113.655
RightUpLeg  -0.682668 -9.5625 -5.1257
RightLeg  6.68728 -9.80091 4.41552
RightFoot  -5.74201 0.0377638 -1.42301
RightToes  0.000482159 0.542163 -0.142577
Spine  6.71622 1.22577 -2.04363
Spine1  0.787256 1.15235 0.727011
HEad  -6.73321 0.364993 -0.306238
LeftShoulder1  1.01173 -2.49718 -9.42499
LeftArm  -21.7435 10.8269 -8.18425
LeftForeArm  11.8424 -1.4147 0.190811
LeftHand  -0.25398 0.0180481 5.50724
RightShoulder  0.425512 -0.777248 8.11753
RightArm  -28.1745 -5.23743 5.47826
RightForeArm  0.153475 2.14922 0.445957
RightHand  -1.11952 2.69474 -16.2507
LeftUpLeg  -2.11273 5.46237 3.39748
LeftLeg  2.36753 15.2038 -4.1633
LeftFoot  0.152665 0.103549 -1.10478
LeftToes  1.06244e-005 4.65856e-005 -8.18505e-006
3
root  40.6121 40.5478 -3.55488 -115.863 -87.0991 115.541
RightUpLeg  -0.612432 -9.44388 -5.0108
RightLeg  6.48151 -9.88098 4.42787
RightFoot  -5.55891 0.0428346 -1.50185
RightToes  0.000482159 0.542163 -0.142577
Spine  6.88102 1.24671 -1.92376
Spine1  0.704011 1.15536 0.793862
HEad  -6.32934 0.320925 -0.374417
LeftShoulder1  1.00173 -2.43929 -9.41928
LeftArm  -21.7347 10.5927 -8.13575
LeftForeArm  12.1095 -1.4108 0.175812
LeftHand  -0.25398 0.0180481 5.50724
RightShoulder  0.405035 -0.882232 7.94322
RightArm  -28.4742 -5.16443 5.71563
RightForeArm  0.115273 1.87179 0.302116
RightHand  -1.08406 2.42334 -16.2684
LeftUpLeg  -1.93005 5.52664 3.51993
LeftLeg  1.97024 15.2347 -4.32758
LeftFoot  0.466211 0.0975302 -1.01122
LeftToes  1.06244e-005 4.65856e-005 -8.18505e-006
4
root  40.6586 40.5587 -3.52603 -117.359 -87.1194 116.943
RightUpLeg  -0.505813 -9.32778 -4.95071
RightLeg  6.2734 -9.9754 4.39374
RightFoot  -5.40347 0.0479113 -1.58078
RightToes  0.000482159 0.542163 -0.142577
Spine  6.98309 1.23587 -1.74102
Spine1  0.678647 1.16296 0.695213
HEad  -6.00307 0.178513 -0.414322
LeftShoulder1  1.00542 -2.48869 -9.33444
LeftArm  -21.671 10.5863 -8.07509
LeftForeArm  12.5546 -1.57729 0.140731
LeftHand  -0.25398 0.0180481 5.50724
RightShoulder  0.391781 -0.967796 7.94083
RightArm  -28.6693 -5.09575 5.81724
RightForeArm  -0.00405125 1.74845 0.225449
RightHand  -1.10402 2.45193 -16.5005
LeftUpLeg  -1.73922 5.50217 3.5105
LeftLeg  1.62391 15.341 -4.37846
LeftFoot  0.714877 0.0918738 -0.92331
LeftToes  1.06244e-005 4.65856e-005 -8.18505e-006
5
root  40.68 40.5656 -3.48159 -115.995 -87.1496 115.512
RightUpLeg  -0.416177 -9.30306 -4.99141
RightLeg  6.15386 -10.0893 4.35331
RightFoot  -5.32838 0.0483743 -1.58798
RightToes  0.000482159 0.542163 -0.142577
Spine  6.9518 1.13475 -1.69835
Spine1  0.726761 1.05786 0.70355
HEad  -5.81665 0.0997314 -0.397673
LeftShoulder1  1.00544 -2.49629 -9.31147
LeftArm  -21.687 10.6476 -7.99477
LeftForeArm  13.1299 -1.60951 0.174782
LeftHand  -0.25398 0.0180481 5.50724
RightShoulder  0.394756 -0.959964 8.01795
RightArm  -28.6633 -5.02824 5.79373
RightForeArm  0.188616 1.81452 0.238275
RightHand  -1.18389 2.93433 -16.6907
LeftUpLeg  -1.64759 5.35542 3.37369
LeftLeg  1.461 15.4222 -4.31806
LeftFoot  0.821714 0.0877489 -0.871636
LeftToes  1.06244e-005 4.65856e-005 -8.18505e-006
6
root  40.6938 40.5663 -3.42971 -114.712 -87.1619 114.19
RightUpLeg  -0.42476 -9.35908 -5.08418
RightLeg  6.19668 -10.1246 4.32885
RightFoot  -5.28307 0.0459289 -1.54729
RightToes  0.000482159 0.542163 -0.142577
Spine  6.93045 1.03338 -1.77463
Spine1  0.681365 0.917627 0.880706
HEad  -5.64693 0.192576 -0.327053
LeftShoulder1  0.988048 -2.37749 -9.3562
LeftArm  -21.7834 10.5851 -7.98627
LeftForeArm  13.4758 -1.35982 0.264363
LeftHand  -0.25398 0.0180481 5.50724
RightShoulder  0.412018 -0.855942 8.06646
RightArm  -28.5391 -4.98608 5.65804
RightForeArm  0.667924 1.94147 0.282368
RightHand  -1.24946 3.43759 -16.6329
LeftUpLeg  -1.62755 5.21842 3.22494
LeftLeg  1.40878 15.4911 -4.25962
LeftFoot  0.870082 0.0763273 -0.763005
LeftToes  1.06244e-005 4.65856e-005 -8.18505e-006
7
root  40.71 40.5653 -3.37412 -117.151 -87.116 116.585
RightUpLeg  -0.506564 -9.40204 -5.15103
RightLeg  6.35072 -10.0141 4.29999
RightFoot  -5.2227 0.0462191 -1.54777
RightToes  0.000482159 0.542163 -0.142577
Spine  6.99457 1.05391 -1.85927
Spine1  0.544071 0.889643 1.11646
HEad  -5.43797 0.429096 -0.294381
LeftShoulder1  0.974854 -2.2836 -9.40321
LeftArm  -21.7363 10.5168 -8.04513
LeftForeArm  13.3202 -1.11791 0.26975
LeftHand  -0.25398 0.0180481 5.50724
RightShoulder  0.43173 -0.720542 8.01357
RightArm  -28.3799 -5.01276 5.48391
RightForeArm  0.748258 2.02552 0.3397
RightHand  -1.23789 3.42747 -16.502
LeftUpLeg  -1.57849 5.20201 3.15899
LeftLeg  1.36963 15.6305 -4.2833
LeftFoot  0.913894 0.0563014 -0.576036
LeftToes  1.06244e-005 4.65856e-005 -8.18505e-006
